<svg version="1.1" id="Layer_1" xmlns="http://www.w3.org/2000/svg" xmlns:xlink="http://www.w3.org/1999/xlink" x="0px" y="0px"	 viewBox="0 0 512 512" style="enable-background:new 0 0 512 512;" xml:space="preserve"><g>	<g>		<path d="M358.614,444.66H153.386c-4.427,0-8.017,3.589-8.017,8.017c0,4.427,3.589,8.017,8.017,8.017h205.228			c4.427,0,8.017-3.589,8.017-8.017C366.63,448.249,363.041,444.66,358.614,444.66z"/>	</g></g><g>	<g>		<path d="M119.182,444.66h-17.102c-4.427,0-8.017,3.589-8.017,8.017c0,4.427,3.589,8.017,8.017,8.017h17.102			c4.427,0,8.017-3.589,8.017-8.017C127.198,448.249,123.609,444.66,119.182,444.66z"/>	</g></g><g>	<g>		<path d="M67.875,444.66H50.772c-4.427,0-8.017,3.589-8.017,8.017c0,4.427,3.589,8.017,8.017,8.017h17.102			c4.427,0,8.017-3.589,8.017-8.017C75.891,448.249,72.302,444.66,67.875,444.66z"/>	</g></g><g>	<g>		<path d="M461.228,444.66h-17.102c-4.427,0-8.017,3.589-8.017,8.017c0,4.427,3.589,8.017,8.017,8.017h17.102			c4.427,0,8.017-3.589,8.017-8.017C469.244,448.249,465.655,444.66,461.228,444.66z"/>	</g></g><g>	<g>		<path d="M409.921,444.66h-17.102c-4.427,0-8.017,3.589-8.017,8.017c0,4.427,3.589,8.017,8.017,8.017h17.102			c4.427,0,8.017-3.589,8.017-8.017C417.937,448.249,414.348,444.66,409.921,444.66z"/>	</g></g><g>	<g>		<path d="M461.228,410.455h-34.205c-4.427,0-8.017,3.589-8.017,8.017c0,4.427,3.589,8.017,8.017,8.017h34.205			c4.427,0,8.017-3.589,8.017-8.017C469.244,414.044,465.655,410.455,461.228,410.455z"/>	</g></g><g>	<g>		<path d="M392.818,410.455h-17.102c-4.427,0-8.017,3.589-8.017,8.017c0,4.427,3.589,8.017,8.017,8.017h17.102			c4.427,0,8.017-3.589,8.017-8.017C400.835,414.044,397.246,410.455,392.818,410.455z"/>	</g></g><g>	<g>		<path d="M341.511,410.455h-17.102c-4.427,0-8.017,3.589-8.017,8.017c0,4.427,3.589,8.017,8.017,8.017h17.102			c4.427,0,8.017-3.589,8.017-8.017C349.528,414.044,345.939,410.455,341.511,410.455z"/>	</g></g><g>	<g>		<path d="M290.205,410.455h-17.102c-4.427,0-8.017,3.589-8.017,8.017c0,4.427,3.589,8.017,8.017,8.017h17.102			c4.427,0,8.017-3.589,8.017-8.017C298.221,414.044,294.632,410.455,290.205,410.455z"/>	</g></g><g>	<g>		<path d="M238.898,410.455h-17.102c-4.427,0-8.017,3.589-8.017,8.017c0,4.427,3.589,8.017,8.017,8.017h17.102			c4.427,0,8.017-3.589,8.017-8.017C246.914,414.044,243.325,410.455,238.898,410.455z"/>	</g></g><g>	<g>		<path d="M187.591,410.455h-17.102c-4.427,0-8.017,3.589-8.017,8.017c0,4.427,3.589,8.017,8.017,8.017h17.102			c4.427,0,8.017-3.589,8.017-8.017C195.608,414.044,192.018,410.455,187.591,410.455z"/>	</g></g><g>	<g>		<path d="M136.284,410.455h-17.102c-4.427,0-8.017,3.589-8.017,8.017c0,4.427,3.589,8.017,8.017,8.017h17.102			c4.427,0,8.017-3.589,8.017-8.017C144.301,414.044,140.711,410.455,136.284,410.455z"/>	</g></g><g>	<g>		<path d="M84.977,410.455H50.772c-4.427,0-8.017,3.589-8.017,8.017c0,4.427,3.589,8.017,8.017,8.017h34.205			c4.427,0,8.017-3.589,8.017-8.017C92.994,414.044,89.404,410.455,84.977,410.455z"/>	</g></g><g>	<g>		<path d="M461.228,342.046h-34.205c-4.427,0-8.017,3.589-8.017,8.017s3.589,8.017,8.017,8.017h34.205			c4.427,0,8.017-3.589,8.017-8.017S465.655,342.046,461.228,342.046z"/>	</g></g><g>	<g>		<path d="M392.818,342.046h-17.102c-4.427,0-8.017,3.589-8.017,8.017s3.589,8.017,8.017,8.017h17.102			c4.427,0,8.017-3.589,8.017-8.017S397.246,342.046,392.818,342.046z"/>	</g></g><g>	<g>		<path d="M341.511,342.046h-17.102c-4.427,0-8.017,3.589-8.017,8.017s3.589,8.017,8.017,8.017h17.102			c4.427,0,8.017-3.589,8.017-8.017S345.939,342.046,341.511,342.046z"/>	</g></g><g>	<g>		<path d="M290.205,342.046h-17.102c-4.427,0-8.017,3.589-8.017,8.017s3.589,8.017,8.017,8.017h17.102			c4.427,0,8.017-3.589,8.017-8.017S294.632,342.046,290.205,342.046z"/>	</g></g><g>	<g>		<path d="M238.898,342.046h-17.102c-4.427,0-8.017,3.589-8.017,8.017s3.589,8.017,8.017,8.017h17.102			c4.427,0,8.017-3.589,8.017-8.017S243.325,342.046,238.898,342.046z"/>	</g></g><g>	<g>		<path d="M187.591,342.046h-17.102c-4.427,0-8.017,3.589-8.017,8.017s3.589,8.017,8.017,8.017h17.102			c4.427,0,8.017-3.589,8.017-8.017S192.018,342.046,187.591,342.046z"/>	</g></g><g>	<g>		<path d="M136.284,342.046h-17.102c-4.427,0-8.017,3.589-8.017,8.017s3.589,8.017,8.017,8.017h17.102			c4.427,0,8.017-3.589,8.017-8.017S140.711,342.046,136.284,342.046z"/>	</g></g><g>	<g>		<path d="M84.977,342.046H50.772c-4.427,0-8.017,3.589-8.017,8.017s3.589,8.017,8.017,8.017h34.205			c4.427,0,8.017-3.589,8.017-8.017S89.404,342.046,84.977,342.046z"/>	</g></g><g>	<g>		<path d="M461.228,376.251h-17.102c-4.427,0-8.017,3.589-8.017,8.017c0,4.427,3.589,8.017,8.017,8.017h17.102			c4.427,0,8.017-3.589,8.017-8.017C469.244,379.84,465.655,376.251,461.228,376.251z"/>	</g></g><g>	<g>		<path d="M409.921,376.251h-17.102c-4.427,0-8.017,3.589-8.017,8.017c0,4.427,3.589,8.017,8.017,8.017h17.102			c4.427,0,8.017-3.589,8.017-8.017C417.937,379.84,414.348,376.251,409.921,376.251z"/>	</g></g><g>	<g>		<path d="M358.614,376.251h-17.102c-4.427,0-8.017,3.589-8.017,8.017c0,4.427,3.589,8.017,8.017,8.017h17.102			c4.427,0,8.017-3.589,8.017-8.017C366.63,379.84,363.041,376.251,358.614,376.251z"/>	</g></g><g>	<g>		<path d="M307.307,376.251h-17.102c-4.427,0-8.017,3.589-8.017,8.017c0,4.427,3.589,8.017,8.017,8.017h17.102			c4.427,0,8.017-3.589,8.017-8.017C315.324,379.84,311.734,376.251,307.307,376.251z"/>	</g></g><g>	<g>		<path d="M256,376.251h-17.102c-4.427,0-8.017,3.589-8.017,8.017c0,4.427,3.589,8.017,8.017,8.017H256			c4.427,0,8.017-3.589,8.017-8.017C264.017,379.84,260.427,376.251,256,376.251z"/>	</g></g><g>	<g>		<path d="M204.693,376.251h-17.102c-4.427,0-8.017,3.589-8.017,8.017c0,4.427,3.589,8.017,8.017,8.017h17.102			c4.427,0,8.017-3.589,8.017-8.017C212.71,379.84,209.12,376.251,204.693,376.251z"/>	</g></g><g>	<g>		<path d="M153.386,376.251h-17.102c-4.427,0-8.017,3.589-8.017,8.017c0,4.427,3.589,8.017,8.017,8.017h17.102			c4.427,0,8.017-3.589,8.017-8.017C161.403,379.84,157.814,376.251,153.386,376.251z"/>	</g></g><g>	<g>		<path d="M102.079,376.251H50.772c-4.427,0-8.017,3.589-8.017,8.017c0,4.427,3.589,8.017,8.017,8.017h51.307			c4.427,0,8.017-3.589,8.017-8.017C110.096,379.84,106.507,376.251,102.079,376.251z"/>	</g></g><g>	<g>		<path d="M461.228,307.841h-17.102c-4.427,0-8.017,3.589-8.017,8.017s3.589,8.017,8.017,8.017h17.102			c4.427,0,8.017-3.589,8.017-8.017S465.655,307.841,461.228,307.841z"/>	</g></g><g>	<g>		<path d="M409.921,307.841h-17.102c-4.427,0-8.017,3.589-8.017,8.017s3.589,8.017,8.017,8.017h17.102			c4.427,0,8.017-3.589,8.017-8.017S414.348,307.841,409.921,307.841z"/>	</g></g><g>	<g>		<path d="M358.614,307.841h-17.102c-4.427,0-8.017,3.589-8.017,8.017s3.589,8.017,8.017,8.017h17.102			c4.427,0,8.017-3.589,8.017-8.017S363.041,307.841,358.614,307.841z"/>	</g></g><g>	<g>		<path d="M307.307,307.841h-17.102c-4.427,0-8.017,3.589-8.017,8.017s3.589,8.017,8.017,8.017h17.102			c4.427,0,8.017-3.589,8.017-8.017S311.734,307.841,307.307,307.841z"/>	</g></g><g>	<g>		<path d="M256,307.841h-17.102c-4.427,0-8.017,3.589-8.017,8.017s3.589,8.017,8.017,8.017H256c4.427,0,8.017-3.589,8.017-8.017			S260.427,307.841,256,307.841z"/>	</g></g><g>	<g>		<path d="M204.693,307.841h-17.102c-4.427,0-8.017,3.589-8.017,8.017s3.589,8.017,8.017,8.017h17.102			c4.427,0,8.017-3.589,8.017-8.017S209.12,307.841,204.693,307.841z"/>	</g></g><g>	<g>		<path d="M153.386,307.841h-17.102c-4.427,0-8.017,3.589-8.017,8.017s3.589,8.017,8.017,8.017h17.102			c4.427,0,8.017-3.589,8.017-8.017S157.814,307.841,153.386,307.841z"/>	</g></g><g>	<g>		<path d="M102.079,307.841H50.772c-4.427,0-8.017,3.589-8.017,8.017s3.589,8.017,8.017,8.017h51.307			c4.427,0,8.017-3.589,8.017-8.017S106.507,307.841,102.079,307.841z"/>	</g></g><g>	<g>		<path d="M84.977,59.858H42.221c-4.427,0-8.017,3.589-8.017,8.017s3.589,8.017,8.017,8.017h42.756c4.427,0,8.017-3.589,8.017-8.017			S89.404,59.858,84.977,59.858z"/>	</g></g><g>	<g>		<path d="M84.977,128.267H42.221c-4.427,0-8.017,3.589-8.017,8.017s3.589,8.017,8.017,8.017h42.756			c4.427,0,8.017-3.589,8.017-8.017S89.404,128.267,84.977,128.267z"/>	</g></g><g>	<g>		<path d="M84.977,94.063H42.221c-4.427,0-8.017,3.589-8.017,8.017s3.589,8.017,8.017,8.017h42.756c4.427,0,8.017-3.589,8.017-8.017			S89.404,94.063,84.977,94.063z"/>	</g></g><g>	<g>		<path d="M196.142,59.858h-42.756c-4.427,0-8.017,3.589-8.017,8.017s3.589,8.017,8.017,8.017h42.756			c4.427,0,8.017-3.589,8.017-8.017S200.569,59.858,196.142,59.858z"/>	</g></g><g>	<g>		<path d="M196.142,128.267h-42.756c-4.427,0-8.017,3.589-8.017,8.017s3.589,8.017,8.017,8.017h42.756			c4.427,0,8.017-3.589,8.017-8.017S200.569,128.267,196.142,128.267z"/>	</g></g><g>	<g>		<path d="M196.142,94.063h-42.756c-4.427,0-8.017,3.589-8.017,8.017s3.589,8.017,8.017,8.017h42.756			c4.427,0,8.017-3.589,8.017-8.017S200.569,94.063,196.142,94.063z"/>	</g></g><g>	<g>		<path d="M469.779,51.307h-63.125c-6.316,0-11.994,3.509-14.819,9.158l-33.221,66.443l-16.12-32.239			c-2.824-5.649-8.502-9.158-14.818-9.158h-11.818c-4.427,0-8.017,3.589-8.017,8.017s3.589,8.017,8.017,8.017h11.818			c0.203,0,0.387,0.113,0.478,0.295l23.29,46.58c1.357,2.716,4.133,4.432,7.17,4.432s5.813-1.716,7.17-4.432l40.392-80.784			c0.091-0.183,0.274-0.296,0.478-0.296h63.125c4.427,0,8.017-3.589,8.017-8.017S474.206,51.307,469.779,51.307z"/>	</g></g><g>	<g>		<path d="M450.285,119.182l17.101-20.522c2.835-3.401,2.374-8.456-1.027-11.291c-3.401-2.834-8.456-2.375-11.291,1.026			L439.85,106.66l-15.219-18.263c-2.835-3.402-7.891-3.861-11.291-1.026c-3.401,2.835-3.861,7.89-1.026,11.291l17.101,20.522			l-17.101,20.522c-2.835,3.401-2.375,8.456,1.026,11.291c1.499,1.248,3.318,1.858,5.127,1.858c2.296,0,4.577-0.982,6.163-2.885			l15.219-18.263l15.219,18.263c1.585,1.903,3.866,2.885,6.163,2.885c1.81,0,3.63-0.609,5.128-1.858			c3.401-2.835,3.861-7.89,1.026-11.291L450.285,119.182z"/>	</g></g><g>	<g>		<path d="M375.716,238.363c13.851,0,25.119-11.268,25.119-25.119v-26.188h94.597c9.136,0,16.568-7.432,16.568-16.568V33.67			c0-9.136-7.432-16.568-16.568-16.568H290.205c-9.136,0-16.568,7.432-16.568,16.568v136.818c0,9.136,7.432,16.568,16.568,16.568			h94.597v26.188c0,5.01-4.076,9.086-9.086,9.086H136.284c-5.01,0-9.086-4.076-9.086-9.086v-17.102c0-5.01,4.076-9.086,9.086-9.086			h94.063c4.427,0,8.017-3.589,8.017-8.017V25.119c0-4.427-3.589-8.017-8.017-8.017h-94.063c-6.603,0-12.614,2.564-17.102,6.745			c-4.488-4.18-10.5-6.745-17.102-6.745H8.017C3.589,17.102,0,20.692,0,25.119V179.04c0,4.427,3.589,8.017,8.017,8.017h94.063			c5.01,0,9.086,4.076,9.086,9.086v17.102c0,13.851,11.268,25.119,25.119,25.119h111.769l-0.057,35.273H33.67			c-18.566,0-33.67,15.105-33.67,33.67v153.921c0,18.566,15.105,33.67,33.67,33.67h444.66c18.566,0,33.67-15.105,33.67-33.67			V307.307c0-18.566-15.105-33.67-33.67-33.67h-214.3l0.057-35.273H375.716z M290.205,171.023c-0.295,0-0.534-0.239-0.534-0.534			V33.67c0-0.295,0.239-0.534,0.534-0.534h205.228c0.295,0,0.534,0.239,0.534,0.534v136.818c0,0.295-0.239,0.534-0.534,0.534			H290.205z M127.198,42.221c0-5.01,4.076-9.086,9.086-9.086h86.046v137.887h-86.046c-3.202,0-6.267,0.602-9.086,1.7V42.221z			 M111.165,172.723c-2.819-1.098-5.883-1.7-9.086-1.7H16.033V33.136h86.046c5.01,0,9.086,4.076,9.086,9.086V172.723z			 M478.33,289.67c9.725,0,17.637,7.912,17.637,17.637v153.921c0,9.725-7.912,17.637-17.637,17.637H33.67			c-9.725,0-17.637-7.912-17.637-17.637V307.307c0-9.725,7.912-17.637,17.637-17.637H478.33z"/>	</g></g><g></g><g></g><g></g><g></g><g></g><g></g><g></g><g></g><g></g><g></g><g></g><g></g><g></g><g></g><g></g></svg>